<svg xmlns="http://www.w3.org/2000/svg" version="1.1" xmlns:xlink="http://www.w3.org/1999/xlink" width="512" height="512" x="0" y="0" viewBox="0 0 24 24" style="enable-background:new 0 0 512 512" xml:space="preserve" class=""><g><rect width="22" height="22" x="1" y="1" fill="#00bc7d" rx="6" opacity="1" data-original="#64ef82" class=""></rect><path fill="#ffffff" d="M16.197 7.875h-.99v-.917a2.753 2.753 0 0 0-2.75-2.75 2.753 2.753 0 0 0-2.75 2.75v.917h-.99c-.71 0-1.312.554-1.37 1.26l-.681 8.174a2.293 2.293 0 0 0 2.283 2.483h7.015a2.292 2.292 0 0 0 2.283-2.483l-.68-8.173a1.382 1.382 0 0 0-1.37-1.261zm-1.449.917c.254 0 .459.205.459.458v.23a.458.458 0 1 1-.917 0v-.23c0-.253.205-.458.458-.458zm-4.125-1.834c0-1.01.822-1.833 1.834-1.833 1.01 0 1.833.823 1.833 1.833v.917h-3.667zM9.707 9.25a.458.458 0 1 1 .916 0v.23a.458.458 0 1 1-.916 0zm5.958 4.125A4.13 4.13 0 0 1 11.54 17.5h-.671l2.317-2.317a.344.344 0 0 0-.486-.487l-3.128 3.128a.458.458 0 1 1-.648-.648l.324-.324v-1.644a4.13 4.13 0 0 1 4.125-4.125h1.146c.632 0 1.146.514 1.146 1.146z" opacity="1" data-original="#025e16" class=""></path></g></svg>